/* Songs from https://github.com/robsoncouto/arduino-songs/blob/master/starwars/starwars.ino */

#include "pitches.h"

/* 
1: Dart Vader theme
2: Pink Panther theme
*/

// change this to make the song slower or faster
int tempo1 = 108;

int melody1[] = {
  
  // Dart Vader theme (Imperial March) - Star wars 
  // Score available at https://musescore.com/user/202909/scores/1141521
  // The tenor saxophone part was used
  
  NOTE_AS4,8, NOTE_AS4,8, NOTE_AS4,8,//1
  NOTE_F5,2, NOTE_C6,2,
  NOTE_AS5,8, NOTE_A5,8, NOTE_G5,8, NOTE_F6,2, NOTE_C6,4,  
  NOTE_AS5,8, NOTE_A5,8, NOTE_G5,8, NOTE_F6,2, NOTE_C6,4,  
  NOTE_AS5,8, NOTE_A5,8, NOTE_AS5,8, NOTE_G5,2, NOTE_C5,8, NOTE_C5,8, NOTE_C5,8,
  NOTE_F5,2, NOTE_C6,2,
  NOTE_AS5,8, NOTE_A5,8, NOTE_G5,8, NOTE_F6,2, NOTE_C6,4,  
  
  NOTE_AS5,8, NOTE_A5,8, NOTE_G5,8, NOTE_F6,2, NOTE_C6,4, //8  
  NOTE_AS5,8, NOTE_A5,8, NOTE_AS5,8, NOTE_G5,2, NOTE_C5,-8, NOTE_C5,16, 
  NOTE_D5,-4, NOTE_D5,8, NOTE_AS5,8, NOTE_A5,8, NOTE_G5,8, NOTE_F5,8,
  NOTE_F5,8, NOTE_G5,8, NOTE_A5,8, NOTE_G5,4, NOTE_D5,8, NOTE_E5,4,NOTE_C5,-8, NOTE_C5,16,
  NOTE_D5,-4, NOTE_D5,8, NOTE_AS5,8, NOTE_A5,8, NOTE_G5,8, NOTE_F5,8,
  
  NOTE_C6,-8, NOTE_G5,16, NOTE_G5,2, REST,8, NOTE_C5,8,//13
  NOTE_D5,-4, NOTE_D5,8, NOTE_AS5,8, NOTE_A5,8, NOTE_G5,8, NOTE_F5,8,
  NOTE_F5,8, NOTE_G5,8, NOTE_A5,8, NOTE_G5,4, NOTE_D5,8, NOTE_E5,4,NOTE_C6,-8, NOTE_C6,16,
  NOTE_F6,4, NOTE_DS6,8, NOTE_CS6,4, NOTE_C6,8, NOTE_AS5,4, NOTE_GS5,8, NOTE_G5,4, NOTE_F5,8,
  NOTE_C6,1, REST,1 ,REST,1
};

int tempo2 = 120;

int melody2[] = {

  // Pink Panther theme
  // Score available at https://musescore.com/benedictsong/the-pink-panther
  // Theme by Masato Nakamura, arranged by Teddy Mason

  REST,2, REST,4, REST,8, NOTE_DS4,8, 
  NOTE_E4,-4, REST,8, NOTE_FS4,8, NOTE_G4,-4, REST,8, NOTE_DS4,8,
  NOTE_E4,-8, NOTE_FS4,8,  NOTE_G4,-8, NOTE_C5,8, NOTE_B4,-8, NOTE_E4,8, NOTE_G4,-8, NOTE_B4,8,   
  NOTE_AS4,2, NOTE_A4,-16, NOTE_G4,-16, NOTE_E4,-16, NOTE_D4,-16, 
  NOTE_E4,2, REST,4, REST,8, NOTE_DS4,4,

  NOTE_E4,-4, REST,8, NOTE_FS4,8, NOTE_G4,-4, REST,8, NOTE_DS4,8,
  NOTE_E4,-8, NOTE_FS4,8,  NOTE_G4,-8, NOTE_C5,8, NOTE_B4,-8, NOTE_G4,8, NOTE_B4,-8, NOTE_E5,8,
  NOTE_DS5,1,   
  NOTE_D5,2, REST,4, REST,8, NOTE_DS4,8, 
  NOTE_E4,-4, REST,8, NOTE_FS4,8, NOTE_G4,-4, REST,8, NOTE_DS4,8,
  NOTE_E4,-8, NOTE_FS4,8,  NOTE_G4,-8, NOTE_C5,8, NOTE_B4,-8, NOTE_E4,8, NOTE_G4,-8, NOTE_B4,8,   
  
  NOTE_AS4,2, NOTE_A4,-16, NOTE_G4,-16, NOTE_E4,-16, NOTE_D4,-16, 
  NOTE_E4,-4, REST,4,
  REST,4, NOTE_E5,-8, NOTE_D5,8, NOTE_B4,-8, NOTE_A4,8, NOTE_G4,-8, NOTE_E4,-8,
  NOTE_AS4,16, NOTE_A4,-8, NOTE_AS4,16, NOTE_A4,-8, NOTE_AS4,16, NOTE_A4,-8, NOTE_AS4,16, NOTE_A4,-8,   
  NOTE_G4,-16, NOTE_E4,-16, NOTE_D4,-16, NOTE_E4,16, NOTE_E4,16, NOTE_E4,2,
 
};
